# Blender v2.78 (sub 0) OBJ File: ''
# www.blender.org
o Plane
v -0.407869 0.553466 0.407869
v 0.407869 0.553466 0.407869
v 0.407869 0.553466 -0.407869
v -0.407869 0.553466 -0.407869
v 0.500000 0.000000 -0.500000
v -0.500000 0.000000 -0.500000
v -0.500000 -0.000000 0.500000
v 0.500000 -0.000000 0.500000
vt 0.0001 0.0001
vt 0.9999 0.0001
vt 0.9999 0.9999
vt 0.0001 0.9999
vt 1.0000 0.0906
vt 0.0000 0.0906
vt 0.0280 0.0000
vt 0.9720 0.0000
vt 0.0000 0.0906
vt 1.0000 0.0906
vt 0.9720 0.0000
vt 0.0280 0.0000
vt 1.0000 0.0906
vt 0.9720 0.0000
vt 0.0000 0.0906
vt 0.0280 0.0000
vn -0.5295 0.6627 0.5295
vn 0.5295 0.6627 0.5295
vn 0.5295 0.6627 -0.5295
vn -0.5295 0.6627 -0.5295
vn 0.6883 0.2291 -0.6883
vn -0.6883 0.2291 -0.6883
vn -0.6883 0.2291 0.6883
vn 0.6883 0.2291 0.6883
s 1
f 1/1/1 2/2/2 3/3/3 4/4/4
f 5/5/5 6/6/6 4/7/4 3/8/3
f 7/9/7 8/10/8 2/11/2 1/12/1
f 6/13/6 7/9/7 1/12/1 4/14/4
f 8/10/8 5/15/5 3/16/3 2/11/2
