# Blender v2.78 (sub 0) OBJ File: ''
# www.blender.org
o Plane
v -0.500000 0.000000 0.500000
v 0.500000 0.000000 0.500000
v -0.500000 0.000000 -0.500000
v 0.500000 0.000000 -0.500000
v -0.472071 0.086179 0.472071
v 0.472071 0.086179 0.472071
v -0.472071 0.086179 -0.472071
v 0.472071 0.086179 -0.472071
v 0.500000 0.000000 0.500000
v 0.500000 0.000000 -0.500000
v 0.472071 0.086179 0.472071
v 0.472071 0.086179 -0.472071
vt 0.0001 0.0001
vt 0.9999 0.0001
vt 0.9999 0.9999
vt 0.0001 0.9999
vt 1.0000 0.0906
vt 0.0000 0.0906
vt 0.0280 0.0000
vt 0.9720 0.0000
vt 0.0000 0.0906
vt 1.0000 0.0906
vt 0.9720 0.0000
vt 0.0280 0.0000
vt 0.9521 0.0424
vt 0.0399 0.0424
vt 0.0399 0.0424
vt 0.9521 0.0424
vt 1.0000 0.0906
vt 0.9720 0.0000
vt 1.0000 0.0906
vt 0.0000 0.0906
vt 0.0280 0.0000
vt 0.9720 0.0000
vt 0.0000 0.0000
vt 0.0000 0.0000
vt 0.0000 0.0000
vt 0.0000 0.0000
vt 0.0838 0.0000
vt 0.0144 0.0279
vt 0.0144 0.0279
vt 0.0838 0.0000
vt 0.8613 0.9721
vt 0.9307 1.0000
vt 0.9307 1.0000
vt 0.8613 0.9721
vn -0.4798 0.7346 0.4798
vn 0.0000 0.3999 0.9165
vn 0.0000 0.8443 0.5358
vn -0.4798 0.7346 -0.4798
vn 0.0000 0.1989 0.9800
vn -0.6428 0.4166 -0.6428
vn -0.6428 0.4166 0.6428
vn 0.0000 0.0897 0.9959
vn 0.4865 0.1577 0.8593
vn 0.3569 0.1157 0.9269
s 1
f 5/1/1 6/2/2 8/3/3 7/4/4
f 4/5/5 3/6/6 7/7/4 8/8/3
f 1/9/7 2/10/8 6/11/2 5/12/1
f 8/13/3 6/14/2 11/15/9 12/16/9
f 3/17/6 1/9/7 5/12/1 7/18/4
f 9/19/10 10/20/10 12/21/9 11/22/9
f 2/23/8 4/24/5 10/25/10 9/26/10
f 4/27/5 8/28/3 12/29/9 10/30/10
f 6/31/2 2/32/8 9/33/10 11/34/9
